<svg xmlns="http://www.w3.org/2000/svg" xmlns:xlink="http://www.w3.org/1999/xlink" width="64" height="64" viewBox="0 0 16.933 16.933"><defs><linearGradient id="a"><stop offset="0" stop-color="#fffffe"/><stop offset=".33" stop-color="#fffff4" stop-opacity=".991"/><stop offset=".67" stop-color="#ffffeb" stop-opacity=".753"/><stop offset=".84" stop-color="#ffffe3" stop-opacity=".502"/><stop offset="1" stop-color="#ffffdc" stop-opacity="0"/></linearGradient><linearGradient xlink:href="#a" id="b" gradientUnits="userSpaceOnUse" x1="0" y1="297" x2="16.933" y2="280.067" gradientTransform="matrix(3.77953 0 0 3.77953 0 -1058.52)"/></defs><path d="M55.523.818c-37.015 42.121-18.507 21.06 0 0zm0 0L6 6v52h52l3.842-52.186A12.968 12.968 0 0 0 55.523.818z" transform="scale(.26458)" fill="url(#b)"/><path d="M3.44 0A3.432 3.432 0 0 0 0 3.44v10.054a3.432 3.432 0 0 0 3.44 3.44h10.054a3.432 3.432 0 0 0 3.44-3.44V3.96h-2.117v9.533a1.32 1.32 0 0 1-1.323 1.323H3.44a1.32 1.32 0 0 1-1.323-1.323V3.44c0-.733.59-1.323 1.323-1.323h9.35l1.9-1.9A3.443 3.443 0 0 0 13.495 0zm1.496 6.978L3.44 8.474l2.993 2.994L7.93 9.971z" fill="#1d7ba3"/><path d="M16.362 1.539l-3.9 3.9L7.93 9.972v1.496h1.496l5.39-5.39 2.117-2.117V3.44c0-.704-.21-1.357-.57-1.901z" fill="#ea6462"/><path fill="#58c478" d="M4.936 6.978l4.49 4.49-1.497 1.497-4.49-4.49z"/></svg>